<svg width="396" height="74" viewBox="0 0 396 74" fill="none" xmlns="http://www.w3.org/2000/svg" role="img" aria-labelledby="receiptpulseLogoLightTitle receiptpulseLogoLightDesc">
  <title id="receiptpulseLogoLightTitle">ReceiptPulse</title>
  <desc id="receiptpulseLogoLightDesc">ReceiptPulse light-theme logo with receipt icon and two-line wordmark.</desc>
  <defs>
    <linearGradient id="logoLightFrame" x1="6" y1="7" x2="58" y2="63" gradientUnits="userSpaceOnUse">
      <stop stop-color="#6EC8FF"/>
      <stop offset="1" stop-color="#3F87D8"/>
    </linearGradient>
    <linearGradient id="logoLightPulse" x1="20" y1="21" x2="44" y2="46" gradientUnits="userSpaceOnUse">
      <stop stop-color="#42BEE8"/>
      <stop offset="1" stop-color="#3374C7"/>
    </linearGradient>
    <linearGradient id="logoLightWordPulse" x1="109" y1="35" x2="229" y2="71" gradientUnits="userSpaceOnUse">
      <stop stop-color="#2E78C5"/>
      <stop offset="1" stop-color="#35A7C9"/>
    </linearGradient>
  </defs>
  <rect x="3.6" y="4.8" width="64.8" height="64.8" rx="20" fill="#F4FBFF" stroke="url(#logoLightFrame)" stroke-opacity="0.66" stroke-width="1.9"/>
  <path d="M20.4 18.5H39L49.6 29.1V49.5C49.6 53.7 46.2 57.1 42 57.1H24.4C20.2 57.1 16.8 53.7 16.8 49.5V22.1C16.8 20.1 18.4 18.5 20.4 18.5Z" fill="#EAF7FF" stroke="url(#logoLightFrame)" stroke-width="2.05" stroke-linejoin="round"/>
  <path d="M39.1 18.6V28.3H48.8" stroke="url(#logoLightFrame)" stroke-width="2.05" stroke-linecap="round" stroke-linejoin="round"/>
  <path d="M24.6 42.8L30.3 47.9L37.8 37.4L42.4 41.2L48.8 32.2" stroke="url(#logoLightPulse)" stroke-width="3.35" stroke-linecap="round" stroke-linejoin="round"/>
  <path d="M24.5 29.8H34.9" stroke="#5F9FD7" stroke-opacity="0.78" stroke-width="1.85" stroke-linecap="round"/>
  <path d="M24.5 34.8H31.8" stroke="#5F9FD7" stroke-opacity="0.58" stroke-width="1.85" stroke-linecap="round"/>
  <text x="82" y="30" fill="#284A6B" font-family="'Segoe UI', 'Aptos', Arial, sans-serif" font-size="15" font-weight="700" letter-spacing="4.6">RECEIPT</text>
  <text x="82" y="62" fill="url(#logoLightWordPulse)" font-family="'Segoe UI', 'Aptos', Arial, sans-serif" font-size="36" font-weight="850" letter-spacing="1.9">PULSE</text>
</svg>
