<svg width="128" height="128" viewBox="0 0 128 128" fill="none" xmlns="http://www.w3.org/2000/svg" role="img" aria-labelledby="receiptpulseMarkTitle receiptpulseMarkDesc">
  <title id="receiptpulseMarkTitle">ReceiptPulse mark</title>
  <desc id="receiptpulseMarkDesc">ReceiptPulse icon with receipt sheet and pulse check stroke.</desc>
  <defs>
    <radialGradient id="receiptpulseMarkGlow" cx="0" cy="0" r="1" gradientUnits="userSpaceOnUse" gradientTransform="translate(88 30) rotate(128) scale(96 104)">
      <stop stop-color="#88F8FF" stop-opacity="0.26"/>
      <stop offset="1" stop-color="#88F8FF" stop-opacity="0"/>
    </radialGradient>
    <linearGradient id="receiptpulseMarkFrame" x1="18" y1="14" x2="106" y2="112" gradientUnits="userSpaceOnUse">
      <stop stop-color="#98FCFF"/>
      <stop offset="1" stop-color="#5EA5FF"/>
    </linearGradient>
    <linearGradient id="receiptpulseMarkStroke" x1="37" y1="33" x2="86" y2="96" gradientUnits="userSpaceOnUse">
      <stop stop-color="#C4FFFF"/>
      <stop offset="1" stop-color="#79C8FF"/>
    </linearGradient>
  </defs>
  <rect x="8" y="8" width="112" height="112" rx="34" fill="#081526"/>
  <rect x="8" y="8" width="112" height="112" rx="34" fill="url(#receiptpulseMarkGlow)"/>
  <rect x="8" y="8" width="112" height="112" rx="34" stroke="url(#receiptpulseMarkFrame)" stroke-opacity="0.48" stroke-width="3"/>
  <path d="M40 32H65L82 49V84C82 91.2 76.2 97 69 97H46C38.8 97 33 91.2 33 84V39C33 35.1 36.1 32 40 32Z" fill="#0C253F" stroke="url(#receiptpulseMarkFrame)" stroke-width="3" stroke-linejoin="round"/>
  <path d="M65 32V47H80" stroke="url(#receiptpulseMarkFrame)" stroke-width="3" stroke-linecap="round" stroke-linejoin="round"/>
  <path d="M45 73L53.7 80.6L64.8 65L71.5 70.4L81.7 56.2" stroke="url(#receiptpulseMarkStroke)" stroke-width="5.2" stroke-linecap="round" stroke-linejoin="round"/>
  <path d="M44 50H61" stroke="#94E7FF" stroke-opacity="0.6" stroke-width="2.8" stroke-linecap="round"/>
  <path d="M44 58H57" stroke="#94E7FF" stroke-opacity="0.4" stroke-width="2.8" stroke-linecap="round"/>
</svg>
